<mxfile host="app.diagrams.net" modified="2023-03-26T11:32:19.257Z" agent="Mozilla/5.0 (Windows NT 10.0; Win64; x64) AppleWebKit/537.36 (KHTML, like Gecko) Chrome/111.0.0.0 Safari/537.36" etag="apGj_kgM9covX38FO7Xd" version="21.1.1" type="device">
  <diagram id="C5RBs43oDa-KdzZeNtuy" name="Page-1">
    <mxGraphModel dx="1050" dy="581" grid="1" gridSize="10" guides="1" tooltips="1" connect="1" arrows="1" fold="1" page="1" pageScale="1" pageWidth="827" pageHeight="1169" math="0" shadow="0">
      <root>
        <mxCell id="WIyWlLk6GJQsqaUBKTNV-0" />
        <mxCell id="WIyWlLk6GJQsqaUBKTNV-1" parent="WIyWlLk6GJQsqaUBKTNV-0" />
        <mxCell id="WIyWlLk6GJQsqaUBKTNV-2" value="" style="rounded=0;html=1;jettySize=auto;orthogonalLoop=1;fontSize=11;endArrow=block;endFill=0;endSize=8;strokeWidth=1;shadow=0;labelBackgroundColor=none;edgeStyle=orthogonalEdgeStyle;" parent="WIyWlLk6GJQsqaUBKTNV-1" edge="1">
          <mxGeometry relative="1" as="geometry">
            <mxPoint x="220" y="120" as="sourcePoint" />
            <mxPoint x="220" y="170" as="targetPoint" />
          </mxGeometry>
        </mxCell>
        <mxCell id="Y-7zX4K3bLapdHoPqaYp-4" value="" style="edgeStyle=orthogonalEdgeStyle;rounded=0;orthogonalLoop=1;jettySize=auto;html=1;" edge="1" parent="WIyWlLk6GJQsqaUBKTNV-1" source="Y-7zX4K3bLapdHoPqaYp-0" target="Y-7zX4K3bLapdHoPqaYp-3">
          <mxGeometry relative="1" as="geometry" />
        </mxCell>
        <mxCell id="Y-7zX4K3bLapdHoPqaYp-0" value="&lt;div style=&quot;color: rgb(197, 200, 198); font-family: Consolas, &amp;quot;Courier New&amp;quot;, monospace; font-size: 18px; line-height: 24px;&quot;&gt;string [] t1&lt;/div&gt;&lt;div style=&quot;color: rgb(197, 200, 198); font-family: Consolas, &amp;quot;Courier New&amp;quot;, monospace; font-size: 18px; line-height: 24px;&quot;&gt;string [] t2&lt;br&gt;&lt;/div&gt;&lt;div style=&quot;color: rgb(197, 200, 198); font-family: Consolas, &amp;quot;Courier New&amp;quot;, monospace; font-size: 18px; line-height: 24px;&quot;&gt;int count = 0&lt;/div&gt;" style="shape=parallelogram;perimeter=parallelogramPerimeter;whiteSpace=wrap;html=1;fixedSize=1;" vertex="1" parent="WIyWlLk6GJQsqaUBKTNV-1">
          <mxGeometry x="110" y="170" width="210" height="100" as="geometry" />
        </mxCell>
        <mxCell id="Y-7zX4K3bLapdHoPqaYp-8" value="" style="edgeStyle=orthogonalEdgeStyle;rounded=0;orthogonalLoop=1;jettySize=auto;html=1;" edge="1" parent="WIyWlLk6GJQsqaUBKTNV-1" source="Y-7zX4K3bLapdHoPqaYp-3" target="Y-7zX4K3bLapdHoPqaYp-7">
          <mxGeometry relative="1" as="geometry" />
        </mxCell>
        <mxCell id="Y-7zX4K3bLapdHoPqaYp-3" value="for int i=0&lt;br&gt;i&amp;lt;t1.Lenght&lt;br&gt;i++" style="shape=hexagon;perimeter=hexagonPerimeter2;whiteSpace=wrap;html=1;fixedSize=1;" vertex="1" parent="WIyWlLk6GJQsqaUBKTNV-1">
          <mxGeometry x="155" y="340" width="120" height="80" as="geometry" />
        </mxCell>
        <mxCell id="Y-7zX4K3bLapdHoPqaYp-10" value="" style="edgeStyle=orthogonalEdgeStyle;rounded=0;orthogonalLoop=1;jettySize=auto;html=1;" edge="1" parent="WIyWlLk6GJQsqaUBKTNV-1" source="Y-7zX4K3bLapdHoPqaYp-7" target="Y-7zX4K3bLapdHoPqaYp-9">
          <mxGeometry relative="1" as="geometry" />
        </mxCell>
        <mxCell id="Y-7zX4K3bLapdHoPqaYp-13" style="edgeStyle=orthogonalEdgeStyle;rounded=0;orthogonalLoop=1;jettySize=auto;html=1;entryX=0;entryY=0.5;entryDx=0;entryDy=0;" edge="1" parent="WIyWlLk6GJQsqaUBKTNV-1" source="Y-7zX4K3bLapdHoPqaYp-7" target="Y-7zX4K3bLapdHoPqaYp-3">
          <mxGeometry relative="1" as="geometry">
            <mxPoint x="80" y="380" as="targetPoint" />
            <Array as="points">
              <mxPoint x="85" y="495" />
              <mxPoint x="85" y="380" />
            </Array>
          </mxGeometry>
        </mxCell>
        <mxCell id="Y-7zX4K3bLapdHoPqaYp-7" value="if t1[i].Length &amp;lt;= 3" style="rhombus;whiteSpace=wrap;html=1;" vertex="1" parent="WIyWlLk6GJQsqaUBKTNV-1">
          <mxGeometry x="105" y="440" width="220" height="110" as="geometry" />
        </mxCell>
        <mxCell id="Y-7zX4K3bLapdHoPqaYp-15" style="edgeStyle=orthogonalEdgeStyle;rounded=0;orthogonalLoop=1;jettySize=auto;html=1;" edge="1" parent="WIyWlLk6GJQsqaUBKTNV-1" source="Y-7zX4K3bLapdHoPqaYp-9">
          <mxGeometry relative="1" as="geometry">
            <mxPoint x="60" y="360" as="targetPoint" />
          </mxGeometry>
        </mxCell>
        <mxCell id="Y-7zX4K3bLapdHoPqaYp-9" value="t2[count] = t1[i]; count++" style="rounded=0;whiteSpace=wrap;html=1;" vertex="1" parent="WIyWlLk6GJQsqaUBKTNV-1">
          <mxGeometry x="155" y="585" width="120" height="60" as="geometry" />
        </mxCell>
        <mxCell id="Y-7zX4K3bLapdHoPqaYp-12" value="да" style="text;html=1;align=center;verticalAlign=middle;resizable=0;points=[];autosize=1;strokeColor=none;fillColor=none;" vertex="1" parent="WIyWlLk6GJQsqaUBKTNV-1">
          <mxGeometry x="210" y="545" width="40" height="30" as="geometry" />
        </mxCell>
        <mxCell id="Y-7zX4K3bLapdHoPqaYp-16" value="" style="endArrow=classic;html=1;rounded=0;entryX=0.032;entryY=0.392;entryDx=0;entryDy=0;entryPerimeter=0;" edge="1" parent="WIyWlLk6GJQsqaUBKTNV-1" target="Y-7zX4K3bLapdHoPqaYp-3">
          <mxGeometry width="50" height="50" relative="1" as="geometry">
            <mxPoint x="60" y="370" as="sourcePoint" />
            <mxPoint x="150" y="370" as="targetPoint" />
          </mxGeometry>
        </mxCell>
        <mxCell id="Y-7zX4K3bLapdHoPqaYp-18" value="SearchThreeCharacters" style="rounded=1;whiteSpace=wrap;html=1;" vertex="1" parent="WIyWlLk6GJQsqaUBKTNV-1">
          <mxGeometry x="160" y="60" width="130" height="70" as="geometry" />
        </mxCell>
      </root>
    </mxGraphModel>
  </diagram>
</mxfile>
